<?xml version="1.0" encoding="UTF-8"?>
<svg xmlns="http://www.w3.org/2000/svg" version="1.1" viewBox="0 0 239 36">
  <defs>
    <style>
      .cls-1 {
        fill: #fff;
      }
    </style>
  </defs>
  <!-- Generator: Adobe Illustrator 28.7.0, SVG Export Plug-In . SVG Version: 1.2.0 Build 136)  -->
  <g>
    <g id="Layer_1">
      <g>
        <path class="cls-1" d="M12.4,27.4c-1.4,0-2.4-.4-3-.8l.3-2c.8.3,1.4.5,2.2.5s1.8-.6,1.8-3.1v-12.7h2.7v12.1c0,3.8-1.1,5.9-3.9,5.9Z"/>
        <path class="cls-1" d="M21.3,27.4c-1.1,0-2-.8-2-2s.9-2,2-2,2,.8,2,2-.9,2-2,2Z"/>
        <path class="cls-1" d="M26.8,27.1V9.5h5.6c4,0,5.9,2.2,5.9,5.6s-1.9,5.7-5.9,5.7h-2.9v6.3h-2.7ZM29.6,18.9h2.7c2.4,0,3.3-1,3.3-3.6v-.4c0-2.5-.9-3.3-3.3-3.3h-2.7v7.3Z"/>
        <path class="cls-1" d="M40.5,27.4c-1.1,0-2-.8-2-2s.9-2,2-2,2,.8,2,2-.9,2-2,2Z"/>
        <path class="cls-1" d="M52.3,27.1V9.5h3.6l3.2,11.7.8,4.9.8-4.9,3.4-11.7h3.7v17.6h-2.6v-8.8l.5-7.8-1.2,5.7-3.2,10.9h-2.8l-3-10.7-1.2-5.8.5,7.8v8.7h-2.3Z"/>
        <path class="cls-1" d="M76.8,27.4c-3.5,0-5.7-2.7-5.7-7.4s2.2-7.4,5.7-7.4,5.7,2.6,5.7,7.3-2.2,7.5-5.7,7.5ZM76.8,25.5c1.9,0,3.1-1.3,3.1-5.2v-.4c0-4.1-1.1-5.2-3.1-5.2s-3.1,1.1-3.1,5.1v.5c0,4.1,1.2,5.4,3.1,5.4Z"/>
        <path class="cls-1" d="M88,14.8l1.4-1.7c.6-.3,1.2-.5,2-.5s1.5.2,1.8.4l-.5,2.3c-.5-.2-1.1-.4-2-.4s-1.9.4-2.7,1v11.1h-2.5v-14.2h1.5l.9,1.9Z"/>
        <path class="cls-1" d="M103.2,13.5l3.2-1.1v2.3h-3.2l1.8,1.1c.1.4.2.8.2,1.4,0,3.5-2.5,4.7-5.2,4.7s-1.7-.1-2.4-.4c-.4.3-.7.7-.7,1.3,0,.9.5,1.4,1.8,1.4h3.1c2.8,0,4.3,1.2,4.3,3.5s-2.8,4.4-6.3,4.4-5.4-1.3-5.4-3.5.4-1.6.7-1.9l1.6-.8c-1-.3-1.8-1-1.8-2.4s.3-1.4.6-1.8l1.5-.8-1.6-1c-.4-.7-.6-1.5-.6-2.6,0-3.4,2.7-4.6,5.2-4.6s2.3.3,3.2.8ZM97.7,26c-.6.5-1.1,1.2-1.1,2.1,0,1.4,1,2,3.2,2s3.9-1.1,3.9-2.4v-.2c0-.9-.4-1.6-2-1.6h-4.1ZM100.1,20.1c1.8,0,2.7-.8,2.7-2.7v-.4c0-1.7-.8-2.6-2.7-2.6s-2.7.9-2.7,2.6v.4c0,1.9.8,2.7,2.7,2.7Z"/>
        <path class="cls-1" d="M115.2,18.7v-1.5c0-1.4-.5-2.5-2.3-2.5s-2.6.4-4.2.9l-.4-1.9c1.3-.5,2.8-1.1,4.7-1.1,3.2,0,4.6,1.6,4.6,5.5v6.7c0,.8.3.9.9.9h.6v1.2c-.2.2-.7.5-1.5.5s-.9,0-1.3-.2l-1-1.6-1.2,1.4c-.5.2-1.4.5-2.4.5-2.2,0-4.1-1.1-4.1-4.1s1.5-4,5.1-4.4l2.3-.3ZM115.2,24.5v-4.3l-2.2.3c-2.1.2-2.9.8-2.9,2.7v.2c0,1.6.8,2.3,2.4,2.3s2.1-.6,2.6-1.2Z"/>
        <path class="cls-1" d="M124.3,14.7l1.3-1.5c.6-.3,1.5-.6,2.6-.6,2.4,0,3.8,1.4,3.8,4.5v10h-2.5v-10.3c0-1.6-.8-2.1-2.1-2.1s-2.1.4-3.1,1.1v11.4h-2.5v-14.2h1.5l.9,1.8Z"/>
        <path class="cls-1" d="M142.3,27.1V9.5h3.6l3.2,11.7.8,4.9.8-4.9,3.4-11.7h3.7v17.6h-2.6v-8.8l.5-7.8-1.2,5.7-3.2,10.9h-2.8l-3-10.7-1.2-5.8.5,7.8v8.7h-2.3Z"/>
        <path class="cls-1" d="M168.5,18.7v-1.5c0-1.4-.5-2.5-2.3-2.5s-2.6.4-4.2.9l-.4-1.9c1.3-.5,2.8-1.1,4.7-1.1,3.2,0,4.6,1.6,4.6,5.5v6.7c0,.8.3.9.9.9h.6v1.2c-.2.2-.7.5-1.5.5s-.9,0-1.3-.2l-1-1.6-1.2,1.4c-.5.2-1.4.5-2.4.5-2.2,0-4.1-1.1-4.1-4.1s1.5-4,5.1-4.4l2.3-.3ZM168.5,24.5v-4.3l-2.2.3c-2.1.2-2.9.8-2.9,2.7v.2c0,1.6.8,2.3,2.4,2.3s2.1-.6,2.6-1.2Z"/>
        <path class="cls-1" d="M177.6,14.8l1.4-1.7c.6-.3,1.2-.5,2-.5s1.5.2,1.8.4l-.5,2.3c-.5-.2-1.1-.4-2-.4s-1.9.4-2.7,1v11.1h-2.5v-14.2h1.5l.9,1.9Z"/>
        <path class="cls-1" d="M187.8,22.2v4.8h-2.5V7.6h2.5v8.7l-.5,3.9,5.5-7.4h2.7l-4.8,6.2,1.8,1.8,3.3,6.1h-2.7l-3.7-6.9-1.5,2.1Z"/>
        <path class="cls-1" d="M199.6,20.8c0,3.5,1.1,4.7,3.5,4.7s2.5-.4,3.7-.9l.4,1.8c-.8.5-2.5,1.1-4.3,1.1-3.9,0-5.9-2.5-5.9-7.4s2.2-7.4,5.6-7.4,5.1,2.5,5.1,6.6v1.5h-8.1ZM199.6,19h5.7v-.4c0-3-.9-4.1-2.6-4.1s-2.9.9-3.1,4.5Z"/>
        <path class="cls-1" d="M214.2,27.4c-2.1,0-3.1-1.2-3.1-3.7v-9h-1.7v-1.9h1.8l1.2-3.8h1.1v3.8h3.1v1.9h-3.1v9.5c0,.9.3,1.2,1.3,1.2h2v1.3c-.6.3-1.5.6-2.7.6Z"/>
        <path class="cls-1" d="M223,27.4c-1.9,0-3.3-.5-4.1-.9l.3-1.8c.9.4,2.2.8,3.6.8s2.7-.6,2.7-2.2-.6-1.8-3.2-2.5c-2-.5-3.4-1.5-3.4-4.1s1.8-4.2,4.7-4.2,3,.4,3.8.8l-.4,1.8c-1.1-.4-1.9-.6-3.3-.6s-2.5.4-2.5,2,.8,1.7,3,2.3c2.4.6,3.7,1.6,3.7,4.3s-1.6,4.2-4.8,4.2Z"/>
      </g>
    </g>
  </g>
</svg>